<svg xmlns="http://www.w3.org/2000/svg" xmlns:xlink="http://www.w3.org/1999/xlink" xml:space="preserve" viewBox="0 0 94 93">
  <title>Info Charts Logo</title>
    <defs>
    <path id="c" d="M94.415 92.838V58.355H.019v34.483z"/>
      <path id="e" fill="#fff" d="M47.173 23.725C28.178 23.662 8.96 35.375 5.372 58.334c4.05.36 6.529.751 9.495 1.05h64.545c1.758-.424 4.754-.88 8.731-1.085-3.084-22.796-21.976-34.51-40.97-34.573z" filter="url(#a)"/>
  </defs>
    <defs>
    <linearGradient id="b">
      <stop offset=".013"/>
        <stop offset=".469" stop-color="navy"/>
        <stop offset="1" stop-color="navy" stop-opacity="0"/>
    </linearGradient>
        <linearGradient xlink:href="#b" id="d" x1="46.451" x2="140.432" y1="-144.097" y2="-144.097" gradientTransform="matrix(.98681 0 0 1.05304 -45.742 104.523)" gradientUnits="userSpaceOnUse"/>
        <filter id="f" width="1.585" height="1.537" x="-.293" y="-.268" color-interpolation-filters="sRGB">
      <feGaussianBlur stdDeviation="5.633"/>
    </filter>
        <filter id="a" width="1.125" height="1.29" x="-.062" y="-.145" color-interpolation-filters="sRGB">
      <feGaussianBlur stdDeviation="2.153"/>
    </filter>
  </defs>
    <use xlink:href="#c"/>
    <path fill="url(#d)" d="M.096-94.415h92.742V-.019H.096z" transform="rotate(90)"/>
    <use xlink:href="#e" filter="url(#a)" transform="scale(1.00842 1)"/>
    <use xlink:href="#e" filter="url(#a)" style="mix-blend-mode:normal" transform="scale(1.00842 1)"/>
    <path fill="#fea" d="M47.57 23.725c-19.155-.063-38.534 11.65-42.153 34.609 4.82.424 7.426.895 11.247 1.202l-6.306 1.179 11.058.816-12.795.906c1.207.9 4.928.969 8.225 1.178l-5.757 1.087c6.457 2.199 12.185.786 18.278 1.178l-13.708.907 1.37 1.722-3.198.272c4.001 1.606 9.379 1.394 14.074 2.084L9.627 72.134l11.332.906-6.58 1.45c3.024 1.77 8.13.65 12.246.906l-10.144 1.722c5.496 2.148 12.642.611 19.009.816-1.896.519-4.08.847-5.3 1.812l15.535 1.269-20.014 1.54 16.176 1.541c-6.671.604-13.6-.063-20.014 1.813 4.387 1.417 8.773.502 13.16.634l-4.66-.906 20.927.544c-4.82.917-10.952 1.463-14.256 2.81 6.823.902 13.647.102 20.47-.091l-8.316-.544 11.516-1.994-3.2-.906 8.592-1.088-9.688-1.812c8.083-.339 17.784-.386 20.837-1.632l-18.004-.272 5.118-1.45-7.037-.362 3.93-1.45-6.672-.816c7.372-.755 15.872-.112 22.116-2.265l-8.59-1.541c6.194-.48 16.195-.378 16.724-1.722l-12.703-.544c3.415-.566 8.271-.561 9.505-1.993l-16.816-1.631c5.779.35 9.651-.433 14.348-.726l-6.489-.543c4.982-.253 11.353.086 14.805-.816l-13.982-2.266 10.51-.543-1.92-.544 5.667-.906-8.865-.816c1.346-.49 4.88-1.159 9.985-1.42-3.11-22.795-22.161-34.51-41.316-34.573z"/>
    <ellipse cx="93.862" cy="146.995" fill="#fff" filter="url(#f)" rx="23.107" ry="25.195" style="mix-blend-mode:normal" transform="matrix(1.00842 0 0 .94577 -47.261 -86.95)"/>
    <path d="M41.287 25.702v2.53l-2.92 3.543-1.903.182-.14 1.334-2.04 4.231h.014l-6.352 10.581-2.799 2.39-2.366 1.664-.138-.055-.65.69.405.105 4.697 2.194.603.185.65-.185 2.18 1.656 2.32 1.413.184.519 27.734-.138 1.206-1.518.464-1.656-1.53.093-.51.057v-.885l-4.87.276-.557 1.195.003.02-.06.007-.036-2.096 11.316-.644v-.552l-8.967.504 7.437-.734-2.69-6.806-1.391-5.703.51-.506-.186-.552-1.345.874-3.154 2.943-1.53.966-.053.092.007-.782h.139l.324.276.464-.644.093-.414-.464-.368-.185.69h-.325l-.186-11.176-.37-.046-.02 1.023-3.29 1.958.62-.497-.047-.414-8.394 5.84-1.16.967-.354.15-.017-.932 1.02-.828-1.067-.046.032-1.929 5.673-.6-.835-2.714v-1.472l.093-.966-4.923.47-.086-5.713zm-.185 3.312-.04 2.504-1.913.182zm13.195 3.697-.024 1.315v19.41l-2.458.413v.23l.279-.02v.89l-6.54-.18-.407 1.143-3.257-.08v-1.937l3.479-.368 8.07-.874.51-.321-.51-.276-1.763-7.773-1.113-7.727v-1.472l.093-.367.312-.251zm-13.163 4.086-.032 1.83-.835.045.603.736.096.021-1.998 3.152-1.484 1.288L36.14 45.8l-2.365 3.173.881-2.943 2.551-4.738 1.577-2.345.51-1.656-2.319 3.036-6.493 5.61-1.557 1.33 5.917-9.805zm.144 2.88-.083 1.662-.023 1.064-1.508 6.02-.464 2.253-.742 1.886-.587 2.692-6.323-.945-7.143-1.518-1.096-.429 5.085-1.549 4.267-.781-3.71 3.633 5.101-.966 3.896-.368.835-5.978.557-1.15.973-3.772zm-.144 4.512-.032 1.52.09-.54-.044 1.045-.046 4.094.046 3.771.075 1.676-1.992-.298.294-.964.14-2.024-.186-1.38.278-2.115.881-3.127zm13.647 4.497.094 4.787-.138.007zm-15.534 3.231.139.966-.414 2.536-.76-.114.2-.72.278-1.794zM24.215 53.37l3.629.945.086.316v.23l-.232.092zm30.058.525-.037 2.241-.75-.018v-2.164zm-1.11.083.032 2.133-.578-.015-.291-.868V54.04zm-24.412.565 3.075.732.742 2.094-2.411-1.542z"/>
    <ellipse cx="28.745" cy="18.45" fill="#fff" rx="1.874" ry="1.926"/>
    <path fill="none" stroke="#fff" stroke-linecap="round" stroke-linejoin="round" stroke-width=".662" d="m8.751 14.676 19.924 3.86 16.276-6.877 17.485 2.978 17.014-1.39"/>
    <ellipse cx="9.022" cy="14.588" fill="#fff" rx="3.038" ry="3.122"/>
    <ellipse cx="44.947" cy="11.701" fill="#fff" rx="1.874" ry="1.926"/>
    <ellipse cx="62.598" cy="14.594" fill="#fff" rx="1.874" ry="1.926"/>
    <path fill="#fff" d="m86.606 17.247-5.666-2.223-4.076 4.616.306-6.226-5.53-2.558 5.855-1.625.657-6.197 3.313 5.222 5.938-1.272-3.808 4.852z"/>
    <use xlink:href="#c" opacity=".67"/>
    <text xml:space="preserve" x="47.839" y="88.454" fill="#fff" stroke-linecap="round" stroke-linejoin="round" stroke-width="1.935" font-family="Arial Black" font-size="12.211" style="line-height:1.73;-inkscape-font-specification:'Arial Black, ';text-align:center" text-anchor="middle" transform="scale(.99475 1.00528)"><tspan x="47.839" y="88.454">INFOCHARTS</tspan></text>
</svg>